<svg xmlns="http://www.w3.org/2000/svg" width="48" height="48" viewBox="0 0 48 48" id="html"><g display="none"><rect width="48" height="48" fill="#fff" color="#000" overflow="visible" style="isolation:auto;mix-blend-mode:normal"></rect><rect style="isolation:auto;mix-blend-mode:normal" width="48" height="48" x="-46.987" fill="#fff" color="#000" overflow="visible"></rect><rect width="48" height="48" x="-102.987" fill="#fff" color="#000" overflow="visible" style="isolation:auto;mix-blend-mode:normal"></rect><rect style="isolation:auto;mix-blend-mode:normal" width="48" height="48" y="57.592" fill="#fff" color="#000" overflow="visible"></rect><rect width="48" height="48" x="-46.987" y="57.592" fill="#fff" color="#000" overflow="visible" style="isolation:auto;mix-blend-mode:normal"></rect><rect style="isolation:auto;mix-blend-mode:normal" width="48" height="48" x="-102.987" y="57.592" fill="#fff" color="#000" overflow="visible"></rect><rect width="48" height="48" y="117.592" fill="#fff" color="#000" overflow="visible" style="isolation:auto;mix-blend-mode:normal"></rect><rect style="isolation:auto;mix-blend-mode:normal" width="48" height="48" x="-46.987" y="117.592" fill="#fff" color="#000" overflow="visible"></rect><rect width="48" height="48" x="-102.987" y="117.592" fill="#fff" color="#000" overflow="visible" style="isolation:auto;mix-blend-mode:normal"></rect><rect style="isolation:auto;mix-blend-mode:normal" width="48" height="48" y="173.592" fill="#fff" color="#000" overflow="visible"></rect><rect width="48" height="48" x="-46.987" y="173.592" fill="#fff" color="#000" overflow="visible" style="isolation:auto;mix-blend-mode:normal"></rect><rect style="isolation:auto;mix-blend-mode:normal" width="48" height="48" x="-102.987" y="173.592" fill="#fff" color="#000" overflow="visible"></rect><rect width="48" height="48" y="231.592" fill="#fff" color="#000" overflow="visible" style="isolation:auto;mix-blend-mode:normal"></rect><rect style="isolation:auto;mix-blend-mode:normal" width="48" height="48" x="-46.987" y="231.592" fill="#fff" color="#000" overflow="visible"></rect><rect width="48" height="48" x="-102.987" y="231.592" fill="#fff" color="#000" overflow="visible" style="isolation:auto;mix-blend-mode:normal"></rect></g><g transform="translate(-955 -1510.362)"><path fill="#242730" style="line-height:normal;text-indent:0;text-align:start;text-decoration-line:none;text-decoration-style:solid;text-decoration-color:#000;text-transform:none;block-progression:tb;isolation:auto;mix-blend-mode:normal" d="m 981,1512.3622 c -0.554,0 -1,0.446 -1,1 l 0,1 c 0,0.554 0.446,1 1,1 l 10.0039,0 0.016,6.4844 c 0,0.8253 0.6708,1.4938 1.4961,1.4961 l 6.4844,0.017 0,28.502 c 0,0.8569 -0.6431,1.5 -1.5,1.5 l -23,0 c -0.857,0 -1.5,-0.6431 -1.5,-1.5 l 0,-1.5 c 0,-0.554 -0.446,-1 -1,-1 l -1,0 c -0.554,0 -1,0.446 -1,1 l 0,1.5 c 0,2.4671 2.0329,4.5 4.5,4.5 l 23,0 c 2.467,0 4.5,-2.0329 4.5,-4.5 l 0,-30.4863 c -10e-5,-0.3978 -0.1582,-0.7793 -0.4395,-1.0606 l -7.5137,-7.5136 c -0.2812,-0.2814 -0.6627,-0.4394 -1.0605,-0.4395 z m -11,21 c 0,0.554 0.446,1 1,1 l 1,0 c 0.554,0 1,-0.446 1,-1 l 0,-10 c 0,-0.554 -0.446,-1 -1,-1 l -1,0 c -0.554,0 -1,0.446 -1,1 z" color="#000" font-family="sans-serif" font-weight="400" overflow="visible"></path><path fill="#11c111" style="line-height:normal;text-indent:0;text-align:start;text-decoration-line:none;text-decoration-style:solid;text-decoration-color:#000;text-transform:none;block-progression:tb;isolation:auto;mix-blend-mode:normal" d="m 974.5,508 c -2.467,0 -4.5,2.0329 -4.5,4.5 l 0,2.5 c 0,0.554 0.446,1 1,1 l 1,0 c 0.554,0 1,-0.446 1,-1 l 0,-2.5 c 0,-0.8569 0.6431,-1.5 1.5,-1.5 l 2.5,0 c 0.554,0 1,-0.446 1,-1 l 0,-1 c 0,-0.554 -0.446,-1 -1,-1 l -2.5,0 z M 959,532 c -1.108,0 -2,0.892 -2,2 l 0,7 c 0,1.108 0.892,2 2,2 l 25,0 c 1.108,0 2,-0.892 2,-2 l 0,-7 c 0,-1.108 -0.892,-2 -2,-2 l -25,0 z m 7.58984,2.73047 0.002,0 4.00781,0 c 0.4872,0 0.50639,0.11413 0.52539,0.58203 l 0.0488,1.39453 0,0.0371 c 0,0.3724 -0.1332,0.55469 -0.4961,0.55469 -0.2864,0 -0.46875,-0.19963 -0.46875,-0.39063 0,-0.029 -0.01,-0.087 -0.01,-0.20117 l -0.0293,-0.94531 -0.97461,0 0,3.47461 0.78321,0 c 0.3915,0 0.58203,0.12422 0.58203,0.51562 0,0.363 -0.18103,0.51563 -0.58203,0.51563 l -2.76758,0 c -0.3995,-6e-4 -0.58985,-0.15333 -0.58985,-0.51563 0,-0.3914 0.2004,-0.51562 0.5918,-0.51562 l 0.7832,0 0,-3.47461 -0.97461,0 -0.0293,0.94531 0,0.11524 c 0,0.2961 -0.1707,0.47656 -0.4668,0.47656 -0.3628,0 -0.50586,-0.18229 -0.50586,-0.55469 l 0,-0.0371 0.0469,-1.39453 c 0.019,-0.46711 0.0385,-0.58164 0.52343,-0.58203 z m -5.70703,0.01 1.20313,0 c 0.401,0 0.59179,0.13363 0.59179,0.51563 0,0.3342 -0.18142,0.51562 -0.51562,0.51562 l -0.0762,0 0,1.06836 1.52929,0 0,-1.06836 -0.0762,0 c -0.3342,0 -0.51562,-0.18142 -0.51562,-0.51562 0,-0.382 0.19069,-0.51563 0.59179,-0.51563 l 1.20313,0 c 0.401,0 0.57227,0.13363 0.57226,0.51563 0,0.3342 -0.16189,0.51562 -0.49609,0.51562 l -0.0762,0 0,3.47461 0.0762,0 c 0.3342,0 0.49609,0.17176 0.49609,0.50586 0,0.3916 -0.18076,0.51563 -0.57226,0.51563 l -1.20313,0 c -0.3915,0 -0.59179,-0.12403 -0.59179,-0.51563 0,-0.3341 0.18142,-0.50586 0.51562,-0.50586 l 0.0762,0 0,-1.375 -1.52929,0 0,1.375 0.0762,0 c 0.3342,0 0.51562,0.17176 0.51562,0.50586 0,0.3916 -0.20029,0.51563 -0.59179,0.51563 l -1.20313,0 c -0.3915,0 -0.58203,-0.12403 -0.58203,-0.51563 0,-0.3341 0.17166,-0.50586 0.50586,-0.50586 l 0.0762,0 0,-3.47461 -0.0762,0 c -0.3342,0 -0.50586,-0.18142 -0.50586,-0.51562 0,-0.382 0.18103,-0.51563 0.58203,-0.51563 z m 11.19336,0 0.72461,0 c 0.3247,0 0.50676,0.1428 0.63086,0.4961 l 0.91602,2.64453 0.88867,-2.64453 c 0.1242,-0.3533 0.30616,-0.4961 0.63086,-0.4961 l 0.72656,0 c 0.4009,0 0.5918,0.13363 0.5918,0.51563 0,0.3342 -0.18143,0.51562 -0.51563,0.51562 l -0.0762,0 0.13281,3.47461 0.0762,0 c 0.3342,0 0.50586,0.17176 0.50586,0.50586 0,0.3916 -0.19053,0.51563 -0.58203,0.51563 l -1.05078,0 c -0.3915,0 -0.58203,-0.12403 -0.58203,-0.51563 0,-0.3341 0.17166,-0.50586 0.50586,-0.50586 l 0.0762,0 -0.0664,-2.8457 -0.6875,2.12109 c -0.10501,0.3247 -0.2862,0.44922 -0.5918,0.44922 -0.3055,0 -0.4868,-0.12452 -0.5918,-0.44922 l -0.67773,-2.12109 -0.0684,2.8457 0.0762,0 c 0.3342,0 0.50586,0.17176 0.50586,0.50586 0,0.3916 -0.19053,0.51563 -0.58203,0.51563 l -1.05078,0 c -0.3915,0 -0.58203,-0.12403 -0.58203,-0.51563 0,-0.3341 0.17165,-0.50586 0.50585,-0.50586 l 0.0762,0 0.13476,-3.47461 -0.0762,0 c -0.3342,0 -0.51563,-0.18142 -0.51562,-0.51562 0,-0.382 0.19079,-0.51563 0.59179,-0.51563 z m 5.90625,0 1.9961,0 c 0.3819,0 0.57226,0.14323 0.57226,0.51563 0,0.3819 -0.19036,0.51562 -0.57226,0.51562 l -0.41211,0 0,3.47461 2.12109,0 0,-0.83007 c 0,-0.4011 0.13346,-0.5918 0.50586,-0.5918 0.3819,0 0.50586,0.2003 0.50586,0.5918 l 0,1.43164 c 0,0.3341 -0.095,0.41992 -0.48633,0.41992 l -4.23047,0 c -0.382,0 -0.56445,-0.13353 -0.56445,-0.51563 0,-0.3818 0.18245,-0.50586 0.56445,-0.50586 l 0.41016,0 0,-3.47461 -0.41016,0 c -0.382,0 -0.56445,-0.13372 -0.56445,-0.51562 0,-0.3724 0.18245,-0.51563 0.56445,-0.51563 z" color="#000" font-family="sans-serif" font-weight="400" overflow="visible" transform="translate(0 1004.362)"></path></g></svg>